<?xml version="1.0" encoding="UTF-8"?>
<svg id="_레이어_1" data-name="레이어 1" xmlns="http://www.w3.org/2000/svg" viewBox="0 0 384 280.49">
  <defs>
    <style>
      .cls-1 {
        fill: #155deb;
      }
    </style>
  </defs>
  <path class="cls-1" d="M353.43,0H30.57C13.69,0,0,13.69,0,30.57v219.35c0,16.88,13.69,30.57,30.57,30.57h322.87c16.88,0,30.57-13.69,30.57-30.57V30.57c0-16.88-13.69-30.57-30.57-30.57ZM369.08,252.35c0,7.25-5.88,13.13-13.13,13.13H28.24c-7.25,0-13.13-5.88-13.13-13.13V28.17c0-7.25,5.88-13.13,13.13-13.13h327.71c7.25,0,13.13,5.88,13.13,13.13v224.18Z"/>
  <rect class="cls-1" x="14.26" y="39.81" width="362.72" height="14.99"/>
  <rect class="cls-1" x="15.33" y="80.26" width="362.72" height="14.99"/>
  <path class="cls-1" d="M338.97,131.3h-100c-3.94,0-7.13,3.19-7.13,7.13s3.19,7.13,7.13,7.13h100c3.94,0,7.13-3.19,7.13-7.13s-3.19-7.13-7.13-7.13Z"/>
  <path class="cls-1" d="M338.97,200.13h-100c-3.94,0-7.13,3.19-7.13,7.13s3.19,7.13,7.13,7.13h100c3.94,0,7.13-3.19,7.13-7.13s-3.19-7.13-7.13-7.13Z"/>
  <path class="cls-1" d="M318.58,165.71h-79.62c-3.94,0-7.13,3.19-7.13,7.13s3.19,7.13,7.13,7.13h79.62c3.94,0,7.13-3.19,7.13-7.13s-3.19-7.13-7.13-7.13Z"/>
  <path class="cls-1" d="M160.71,213.49h-78.4c1.05,1.72,1.67,3.73,1.67,5.89,0,3.22-1.36,6.12-3.52,8.18h82.1c-2.16-2.06-3.52-4.96-3.52-8.18,0-2.16.62-4.17,1.67-5.89ZM183.05,116.27H59.81c-11.05,0-20,8.95-20,20v82.28c0,4.97,4.03,9,9,9h16.12c-2.16-2.06-3.52-4.96-3.52-8.18,0-2.16.62-4.17,1.67-5.89h-8.55v-31.33h133.98v31.33h-8.55c1.05,1.72,1.67,3.73,1.67,5.89,0,3.22-1.36,6.12-3.52,8.18h15.95c4.97,0,9-4.03,9-9v-82.28c0-11.05-8.95-20-20-20ZM90.86,168.28h-36.34v-32.79c0-2.76,2.24-5,5-5h31.34v37.79ZM138.16,168.28h-33.28v-37.79h33.28v37.79ZM188.51,168.28h-36.34v-37.79h31.34c2.76,0,5,2.24,5,5v32.79Z"/>
  <path class="cls-1" d="M72.69,193.9c-14.07,0-25.47,11.4-25.47,25.47s11.4,25.47,25.47,25.47,25.47-11.4,25.47-25.47-11.4-25.47-25.47-25.47ZM72.69,230.67c-6.24,0-11.29-5.06-11.29-11.29s5.06-11.29,11.29-11.29,11.29,5.06,11.29,11.29-5.06,11.29-11.29,11.29Z"/>
  <path class="cls-1" d="M170.34,193.9c-14.07,0-25.47,11.4-25.47,25.47s11.4,25.47,25.47,25.47,25.47-11.4,25.47-25.47-11.4-25.47-25.47-25.47ZM170.34,230.67c-6.24,0-11.29-5.06-11.29-11.29s5.06-11.29,11.29-11.29,11.29,5.06,11.29,11.29-5.06,11.29-11.29,11.29Z"/>
</svg>