<?xml version="1.0" encoding="UTF-8"?>
<svg id="_레이어_2" data-name="레이어 2" xmlns="http://www.w3.org/2000/svg" viewBox="0 0 21.84 21.79">
  <defs>
    <style>
      .cls-1 {
        fill: #155deb;
      }
    </style>
  </defs>
  <g id="_레이어_2-2" data-name="레이어 2">
    <g>
      <path class="cls-1" d="M21.81,3.04c-.11-.52-.62-.59-.62-.59l-1.83-.47-.97-1.5C18.07-.03,17.59,0,17.59,0c-.5,0-.74.46-.74.46l-1,1.54-1.8.45c-.58.2-.59.55-.59.55-.18.54.21.94.21.94l1.1,1.29-.12,1.85c-.06.66.39.84.39.84.42.29.85.08.85.08l1.75-.63,1.55.53c.59.23,1.02,0,1.02,0,.42-.29.36-.76.36-.76l-.11-1.9,1.14-1.38c.35-.42.21-.81.21-.81ZM20.45,3.76l-.98,1.16.1,1.54s.05.39-.12.42c0,0-.11.07-.47-.09l-1.34-.53-1.46.57s-.28.11-.42.01c0,0-.12-.07-.09-.41l.09-1.48-.96-1.24s-.22-.23-.15-.41c0,0,.01-.15.42-.24l1.4-.35.78-1.18s.17-.34.38-.35c0,0,.18-.06.43.4l.72,1.12,1.51.41s.32.05.34.2c0,0,.07.14-.17.44Z"/>
      <path class="cls-1" d="M18.71,7.05l-1.09-.43c0,.05.02.1.02.16v8.83c0,1-.81,1.8-1.8,1.8h-3.92c-.31,0-.56.12-.71.21l-3.61,2.73c-1.07.81-1.01-.26-1.01-.26l.02-2.29c0-.43-.39-.39-.39-.39h-3.23c-1,0-1.8-.81-1.8-1.8V6.77c0-1,.81-1.8,1.8-1.8h12.33l-.77-.99s-.11-.12-.15-.25H3.05c-1.68,0-3.05,1.36-3.05,3.05v8.79c0,1.68,1.36,3.05,3.05,3.05h2.52v1.93s-.03.99.77,1.21c0,0,.99.21,1.6-.28l3.85-2.86h4.05c1.68,0,3.05-1.36,3.05-3.05V7.11s-.1-.03-.16-.06Z"/>
      <path class="cls-1" d="M9.78,12.24h-3.86c-.33.02-.6.29-.6.62s.27.6.6.62h0s3.86,0,3.86,0c.34,0,.62-.28.62-.62s-.28-.62-.62-.62Z"/>
      <path class="cls-1" d="M13.29,8.73h-7.34s-.02,0-.02,0c-.34,0-.62.28-.62.62s.28.62.62.62c0,0,.02,0,.02,0h0s7.34,0,7.34,0c.34,0,.62-.28.62-.62s-.28-.62-.62-.62Z"/>
    </g>
  </g>
</svg>