<?xml version="1.0" encoding="UTF-8"?>
<svg id="_레이어_1" data-name="레이어 1" xmlns="http://www.w3.org/2000/svg" viewBox="0 0 378.94 269.78">
  <defs>
    <style>
      .cls-1 {
        fill: #155deb;
      }
    </style>
  </defs>
  <path class="cls-1" d="M260.07,36.67H13.16v13.48h23.36v59.32H13.16v14.19h246.91c5.52,0,10-4.48,10-10V46.67c0-5.52-4.48-10-10-10ZM146.2,109.48H50.06v-59.32h96.14v59.32ZM255.62,109.48h-96.14v-59.32h96.14v59.32Z"/>
  <path class="cls-1" d="M302.27,36.67c-5.52,0-10,4.48-10,10v67c0,5.52,4.48,10,10,10h60.48V36.67h-60.48ZM305.91,109.48v-59.32h46.27l5.48,59.32h-51.74Z"/>
  <path class="cls-1" d="M353.78,145.99v.02c-3.61.2-6.48,3.19-6.48,6.85s2.87,6.65,6.48,6.85v.02h13.74v-13.74h-13.74Z"/>
  <path class="cls-1" d="M290.31,154.44c-19.33,0-35,15.67-35,35s15.67,35,35,35,35-15.67,35-35-15.67-35-35-35ZM290.31,211.94c-12.43,0-22.5-10.07-22.5-22.5s10.07-22.5,22.5-22.5,22.5,10.07,22.5,22.5-10.07,22.5-22.5,22.5Z"/>
  <path class="cls-1" d="M88.83,154.44c-19.33,0-35,15.67-35,35s15.67,35,35,35,35-15.67,35-35-15.67-35-35-35ZM88.83,211.94c-12.43,0-22.5-10.07-22.5-22.5s10.07-22.5,22.5-22.5,22.5,10.07,22.5,22.5-10.07,22.5-22.5,22.5Z"/>
  <path class="cls-1" d="M116.17,196.5l147.48-.27v-13.52H116.17s0,13.79,0,13.79ZM375.62,158.41l-12.01-122.28C363.61,16.18,347.44,0,327.48,0H36.13C16.18,0,0,16.18,0,36.13v124.39c0,19.95,16.18,36.13,36.13,36.13l24.69-.04v-13.9h-29.08c-10.26,0-18.58-8.32-18.58-18.58V31.99c0-10.26,8.32-18.58,18.59-18.58h299.36c10.26.01,17.7,7.49,19.35,18.04l12.21,132.29c.95,10.86-6.6,18.97-16.86,18.97h-28.15s0,13.42,0,13.42l27.65-.05c19.23-1.55,33.99-11.74,30.32-37.68Z"/>
  <path class="cls-1" d="M279.98,256.12h-145.19c-3.77,0-6.83,3.06-6.83,6.83s3.06,6.83,6.83,6.83c.43,0,.85-.04,1.26-.12h142.67c.41.08.83.12,1.26.12,3.77,0,6.83-3.06,6.83-6.83s-3.06-6.83-6.83-6.83Z"/>
  <circle class="cls-1" cx="98.13" cy="262.95" r="6.83"/>
  <path class="cls-1" d="M372.1,218.14c-.62,0-1.21.09-1.78.24H9.11c-.41-.08-.83-.12-1.26-.12-3.77,0-6.83,3.06-6.83,6.83s3.06,6.83,6.83,6.83c.43,0,.85-.04,1.26-.12h362.87s.09,0,.13,0c3.77,0,6.83-3.06,6.83-6.83s-3.06-6.83-6.83-6.83Z"/>
</svg>