<?xml version="1.0" encoding="UTF-8"?>
<svg id="_레이어_1" data-name="레이어 1" xmlns="http://www.w3.org/2000/svg" viewBox="0 0 892.71 932.03">
  <defs>
    <style>
      .cls-1 {
        fill: #155deb;
      }
    </style>
  </defs>
  <path class="cls-1" d="M858.64,247.91l-121.81-126.84c42-48.77,52.45-107.42,52.45-107.42,2.32-9.48-7.55-13.16-7.55-13.16-11.23-2.9-13.94,8.13-13.94,8.13-13.74,61.74-47.42,96.39-47.42,96.39-44.14-48.36-97.54-19.19-97.54-19.19l-151.35,2.13c-43.94.97-79.52,33.32-79.52,33.32L34.81,479.33l-19.68,20.19C-2.67,519.39.17,559.39.17,559.39c2.36,23.74,16.26,39.74,16.26,39.74l105.55,106.32c5.42,27.1,28,42.02,28,42.02l278.81,160.32c21.29,11.71,32,9.81,32,9.81,10.84,12.48,37.1,14.43,37.1,14.43h313.35c13.55,0,15.15-1.03,15.15-1.03,64.77-15.23,66.06-70.19,66.06-70.19l.26-531.35c-.26-46.45-34.06-81.55-34.06-81.55ZM128.63,643.29c-4.65,7.16-4.84,11.03-4.84,11.03l-73.94-74.71c-12-12.39-12.39-27.29-12.39-27.29-1.94-19.94,9.87-32.9,9.87-32.9L409.28,156.32c32.52-31.94,66.39-31.94,66.39-31.94h28.65c-38.32,11.42-63.1,21.9-63.1,21.9-39.1,19.77-53.81,49.71-53.81,49.71l-258.77,447.29ZM425.47,339.03l.39,320.13v191.61c-.77,9.29,1.16,13.16,1.16,13.16l-253.16-145.61c-27.87-17.48-12-56.84-12-56.84l255.48-442.45c18.58-31.74,45.68-41.81,45.68-41.81l94.55-30.94-93,97.52c-41.03,41.81-39.1,95.23-39.1,95.23ZM855.93,328.2v520.26c-.19,44.13-37.35,46.84-37.35,46.84h-310.45c-43.94.57-45.29-43.36-45.29-43.36l.13-513.35c.19-40.45,24.97-66.58,24.97-66.58l138-142.45c18.39-18.19,32.9-15.87,32.9-15.87,21.1.19,34.06,15.87,34.06,15.87l-8.52,5.23,10.71,20.97,14.13-8.9,115.74,119.81c32.71,33.87,30.97,61.55,30.97,61.55Z"/>
  <circle class="cls-1" cx="659.39" cy="159.48" r="35.1" transform="translate(-19 155.76) rotate(-13.28)"/>
  <path class="cls-1" d="M779.64,587.81l2.13-12.19h29.03c5.42-.39,6-5.61,6-5.61-.41-31.22,5.38-29.97-26.9-29.42l16.84-70.26c1.35-6.58-6.19-7.63-6.19-7.63h-29.42c-7.55.31-7.74,7.44-7.74,7.44l-15.68,70.45h-47.03l-17.23-71.81c-1.55-6.58-7.55-6.07-7.55-6.07h-32.52c-7.16.12-7.94,7.43-7.94,7.43l-16.84,70.45h-47.42l-15.68-72c-1.35-6.97-8.13-5.81-8.13-5.81h-29.42c-7.16.19-6.19,9.1-6.19,9.1l17.23,68.71c-33.42-.68-26.65-1.29-27.3,28.45.38,6.58,7.94,6.58,7.94,6.58h27.29l2.71,11.81c-41.09,1.23-37.94-5.48-37.93,28.45.77,7.55,8.13,7.16,8.13,7.16h38.13l21.48,87.68c2.13,9.29,9.48,7.46,9.48,7.46h28.45c8.13.11,8.9-6.88,8.9-6.88l21.29-88.45,43.55.39,21.68,85.35c2.52,12.19,10.45,9.29,10.45,9.29h28.84c6.39-.19,7.55-8.13,7.55-8.13l20.9-87.1h40.84c6.39-.19,5.42-6.58,5.42-6.58.8-38.2,1.14-26.31-37.16-28.26ZM592.61,649.87l-4.9-27.1h12.65l-7.74,27.1ZM606.8,587.42h-26.32l-2.06-11.61h31.23l-2.84,11.61ZM659.39,530.39l3.15,9.81h-5.94l2.78-9.81ZM646.8,587.42l2.32-11.61h20.39l2.58,11.61h-25.29ZM725.25,649.87l-5.42-27.1h12.13l-6.71,27.1ZM737.64,587.42h-25.29l-2.84-11.61h31.48l-3.35,11.61Z"/>
</svg>