<?xml version="1.0" encoding="UTF-8"?>
<svg id="_레이어_1" data-name="레이어 1" xmlns="http://www.w3.org/2000/svg" viewBox="0 0 21.86 21.54">
  <defs>
    <style>
      .cls-1 {
        fill: none;
      }

      .cls-2 {
        fill: #155deb;
      }
    </style>
  </defs>
  <path class="cls-2" d="M10.4,18.44l-1.44,1.14c-.79.7-1.24.96-1.24.96-.99.64-1.01-.2-1.01-.2v-1.91s-.86,0-.86,0v1.88s-.08,1.23,1.33,1.23c0,0,.52.07,1.62-.86l2.84-2.23h-1.23Z"/>
  <g>
    <path class="cls-1" d="M11.38,17.55h4.66c1.08,0,1.96-.88,1.96-1.96V6.4c0-1.08-.88-1.96-1.96-1.96H2.86c-1.08,0-1.96.88-1.96,1.96v9.19c0,1.08.88,1.96,1.96,1.96h8.51Z"/>
    <rect class="cls-2" x="6.45" y="17.55" width=".26" height=".89"/>
  </g>
  <path class="cls-2" d="M9.98,12.34s0,0,0,0h-3.82s0,0,0,0c-.24,0-.44.19-.44.42s.2.42.44.42h3.82c.24,0,.44-.19.44-.42s-.2-.42-.44-.42Z"/>
  <path class="cls-2" d="M13.45,8.94h-7.29c-.24,0-.44.19-.44.42s.2.42.44.42h7.29c.23,0,.42-.19.42-.42s-.19-.42-.42-.42Z"/>
  <path class="cls-2" d="M21.83,3.04c-.11-.52-.62-.59-.62-.59l-1.83-.47-.97-1.5C18.09-.03,17.62,0,17.62,0c-.5,0-.74.46-.74.46l-1,1.54-1.8.45c-.58.2-.59.55-.59.55-.18.54.21.94.21.94l1.1,1.29-.12,1.85c-.06.66.39.84.39.84.42.29.85.08.85.08l1.75-.63,1.55.53c.59.23,1.02,0,1.02,0,.42-.29.36-.76.36-.76l-.11-1.9,1.14-1.38c.35-.42.21-.81.21-.81ZM20.67,3.79l-1.05,1.24.11,1.65s.05.42-.13.44c0,0-.12.08-.51-.1l-1.43-.57-1.57.61s-.3.12-.44.01c0,0-.13-.08-.1-.44l.1-1.58-1.03-1.32s-.23-.25-.16-.44c0,0,.02-.17.45-.26l1.49-.38.83-1.26s.18-.36.41-.37c0,0,.19-.07.46.43l.77,1.2,1.61.44s.34.05.36.21c0,0,.08.15-.19.47Z"/>
  <path class="cls-2" d="M.9,15.59V6.4c0-1.08.88-1.96,1.96-1.96h11.96l-.42-.54s-.14-.15-.17-.31l-11.11-.03C1.42,3.55.03,4.93.03,6.64L0,15.33c0,1.71,1.38,3.1,3.08,3.1h3.62s0-.89,0-.89h-3.84c-1.08,0-1.96-.88-1.96-1.96ZM18.87,7.18l-.88-.35v8.75c0,1.08-.88,1.96-1.96,1.96h-4.66l-1.01.91,5.38.02c1.71,0,3.1-1.38,3.1-3.08l.03-8.2s0,0-.01,0Z"/>
</svg>