<?xml version="1.0" encoding="UTF-8"?>
<svg id="_레이어_1" data-name="레이어 1" xmlns="http://www.w3.org/2000/svg" viewBox="0 0 382.71 363.65">
  <defs>
    <style>
      .cls-1 {
        fill: #155deb;
      }
    </style>
  </defs>
  <path class="cls-1" d="M191.36,0c-38.73,0-70.13,31.4-70.13,70.13s31.4,70.13,70.13,70.13,70.13-31.4,70.13-70.13S230.09,0,191.36,0ZM191.36,128.46c-32.14,0-58.19-26.05-58.19-58.19s26.05-58.19,58.19-58.19,58.19,26.05,58.19,58.19-26.05,58.19-58.19,58.19Z"/>
  <path class="cls-1" d="M224.08,55.26c0-3.2-2.59-5.79-5.79-5.79-1.38,0-2.64.48-3.63,1.28h0s-30.98,25.36-30.98,25.36l-10.1-13.38h0c-1.05-1.44-2.75-2.38-4.67-2.38-3.19,0-5.78,2.59-5.78,5.78,0,1.35.46,2.58,1.24,3.57h-.02s14.49,19.2,14.49,19.2c0,0,2.86,3.81,7.97-.37l35.13-28.76c1.32-1.06,2.16-2.69,2.16-4.51Z"/>
  <path class="cls-1" d="M105.77,146.34l-41.45-23.93c-2.93-1.69-6.68-.69-8.37,2.24L.82,220.14c-1.69,2.93-.69,6.68,2.24,8.37l41.45,23.93c2.93,1.69,6.68.69,8.37-2.24l55.13-95.49c1.69-2.93.69-6.68-2.24-8.37ZM94.81,154.29l-49.01,84.88c-.14.25-.46.33-.7.19l-31.13-17.97c-.25-.14-.33-.46-.19-.7l49.01-84.88c.14-.25.46-.33.7-.19l31.13,17.97c.25.14.33.46.19.7Z"/>
  <path class="cls-1" d="M381.89,220.14l-55.13-95.49c-1.69-2.93-5.44-3.93-8.37-2.24l-41.45,23.93c-2.93,1.69-3.93,5.44-2.24,8.37l55.13,95.49c1.69,2.93,5.44,3.93,8.37,2.24l41.45-23.93c2.93-1.69,3.93-5.44,2.24-8.37ZM368.73,221.39l-31.13,17.97c-.25.14-.56.06-.7-.19l-49.01-84.88c-.14-.25-.06-.56.19-.7l31.13-17.97c.25-.14.56-.06.7.19l49.01,84.88c.14.25.06.56-.19.7Z"/>
  <path class="cls-1" d="M139.26,231.23l-.74-.74c-8.85-8.85-23.2-8.85-32.05,0l-21.95,21.95c-8.85,8.85-8.85,23.2,0,32.05l.74.74c8.85,8.85,23.2,8.85,32.05,0l21.95-21.95c8.85-8.85,8.85-23.2,0-32.05ZM130.29,256.41l-20.7,20.7c-4.68,4.68-12.26,4.68-16.94,0-4.68-4.68-4.68-12.26,0-16.94l20.7-20.7c4.68-4.68,12.26-4.68,16.94,0,4.68,4.68,4.68,12.26,0,16.94Z"/>
  <path class="cls-1" d="M288.47,258.33l-21.95-21.95c-8.85-8.85-23.2-8.85-32.05,0l-.74.74c-8.85,8.85-8.85,23.2,0,32.05l21.95,21.95c8.85,8.85,23.2,8.85,32.05,0l.74-.74c8.85-8.85,8.85-23.2,0-32.05ZM280.35,283c-4.68,4.68-12.26,4.68-16.94,0l-20.7-20.7c-4.68-4.68-4.68-12.26,0-16.94s12.26-4.68,16.94,0l20.7,20.7c4.68,4.68,4.68,12.26,0,16.94Z"/>
  <path class="cls-1" d="M263.56,283.24l-21.95-21.95c-8.85-8.85-23.2-8.85-32.05,0l-.74.74c-8.85,8.85-8.85,23.2,0,32.05l21.95,21.95c8.85,8.85,23.2,8.85,32.05,0l.74-.74c8.85-8.85,8.85-23.2,0-32.05ZM255.44,307.9c-4.68,4.68-12.26,4.68-16.94,0l-20.7-20.7c-4.68-4.68-4.68-12.26,0-16.94s12.26-4.68,16.94,0l20.7,20.7c4.68,4.68,4.68,12.26,0,16.94Z"/>
  <path class="cls-1" d="M163.52,256.34l-.74-.74c-8.85-8.85-23.2-8.85-32.05,0l-21.95,21.95c-8.85,8.85-8.85,23.2,0,32.05l.74.74c8.85,8.85,23.2,8.85,32.05,0l21.95-21.95c8.85-8.85,8.85-23.2,0-32.05ZM154.54,281.52l-20.7,20.7c-4.68,4.68-12.26,4.68-16.94,0-4.68-4.68-4.68-12.26,0-16.94l20.7-20.7c4.68-4.68,12.26-4.68,16.94,0,4.68,4.68,4.68,12.26,0,16.94Z"/>
  <path class="cls-1" d="M188.9,280.88l-.74-.74c-8.85-8.85-23.2-8.85-32.05,0l-21.95,21.95c-8.85,8.85-8.85,23.2,0,32.05l.74.74c8.85,8.85,23.2,8.85,32.05,0l21.95-21.95c8.85-8.85,8.85-23.2,0-32.05ZM179.93,306.05l-20.7,20.7c-4.68,4.68-12.26,4.68-16.94,0-4.68-4.68-4.68-12.26,0-16.94l20.7-20.7c4.68-4.68,12.26-4.68,16.94,0,4.68,4.68,4.68,12.26,0,16.94Z"/>
  <path class="cls-1" d="M206.09,308.42l-1.25-1.25c-7.24-7.24-18.98-7.24-26.22,0l-17.82,17.82c-7.24,7.24-7.24,18.98,0,26.22l1.25,1.25c7.24,7.24,18.98,7.24,26.22,0l17.82-17.82c7.24-7.24,7.24-18.98,0-26.22ZM197.48,326.83l-16.83,17.51c-2.73,2.84-7.23,2.92-10.07.2l-1.07-1.03c-2.84-2.73-2.92-7.23-.2-10.07l16.83-17.51c2.73-2.84,7.23-2.92,10.07-.2l1.07,1.03c2.84,2.73,2.92,7.23.2,10.07Z"/>
  <path class="cls-1" d="M238.41,308.12l-21.39-21.39c-7.56-7.56-19.13-8.64-27.87-3.28l3.92,12.2s.03-.03.04-.04c4.68-4.68,12.26-4.68,16.94,0l20.31,20.31c4.68,4.68,4.68,12.26,0,16.94h0c-3.95,3.95-9.97,4.55-14.56,1.83l-.55,11.93c7.7,2.25,16.35.35,22.42-5.72l.74-.74c8.85-8.85,8.85-23.2,0-32.05Z"/>
  <path class="cls-1" d="M207.05,325.37l-11.39,10.64c.95-.38,1.99-.59,3.08-.59,4.57,0,8.27,3.67,8.27,8.2s-3.7,8.2-8.27,8.2-8.27-3.67-8.27-8.2c0-1.26.29-2.44.8-3.5l-11.39,10.65c2.9,7.53,10.24,12.89,18.86,12.89,11.16,0,20.2-8.97,20.2-20.04,0-8.12-4.88-15.1-11.89-18.25Z"/>
  <rect class="cls-1" x="52.73" y="244.04" width="32.36" height="11.78" transform="translate(134.2 -.97) rotate(30)"/>
  <rect class="cls-1" x="280.93" y="240.37" width="45.66" height="11.78" transform="translate(689.95 307.66) rotate(150)"/>
  <path class="cls-1" d="M264.02,234.22l-49.22-37.08s-5.32-4.54-16.61-4.71h-7.5s-7.7-.59-14.28,10.21l-8.65,15.04s0,.89-2.5.76l-12.65-1.53s-2.84.08-1.91-3.59l6.71-24.43s1.19-4.25,4.58-5.86l42.28-20.84s3.23-1.83,8.24,0l48.61,15.88s6.33,1.66,11.8-.08l13.08-4.88-6.2-11.04-8.49,3.99s-6.5,1.02-11.12-.38l-45.08-15.16s-8.66-3.06-14.56,0l-9.17,4.88s-1.79.81-3.66-.21l-11.38-6.03s-7.22-4.46-15.75,0l-16.94,8.49s-1.61,1.02-5.01,1.02l-37.23.08-4.8,11.84,37.57-.04s9.81.42,14.77-2.17l14.31-7.3s5.09-3.44,11.25.25c0,0,3.06,1.06-1.15,2.84l-17.02,8.15s-6.28,2.42-8.58,9.51l-8.62,28.87s-2.33,7.6,2.89,13.37c0,0,2.46,3.86,11.5,4.84l13.92.76s5.94.59,9.76-5.31l9.55-15.37s1.95-5.05,7.47-4.84l7.98.34s2.21-.34,5.73,2.29l35.53,26.87,20.53.54Z"/>
</svg>