<?xml version="1.0" encoding="UTF-8"?>
<svg id="_레이어_1" data-name="레이어 1" xmlns="http://www.w3.org/2000/svg" viewBox="0 0 338.25 226.5">
  <defs>
    <style>
      .cls-1 {
        fill: #155deb;
      }
    </style>
  </defs>
  <path class="cls-1" d="M56.98,41.03c-4.74.13-8.39,4.17-8.13,8.61.24,4.11,3.76,7.54,8.13,7.65h40.06c4.18-.45,7.36-4.01,7.35-8.13,0-4.25-3.41-7.87-7.74-8.13h-39.68Z"/>
  <path class="cls-1" d="M9.11,105.03c-4.57-.07-8.34,3.68-8.32,8.22.02,4.51,3.79,8.2,8.32,8.14,23.61,0,47.23,0,70.84,0,4.67.2,8.61-3.59,8.6-8.18,0-4.52-3.82-8.27-8.42-8.18"/>
  <path class="cls-1" d="M56.34,169.19c-4.46.38-7.81,4.23-7.61,8.52.19,4.01,3.44,7.4,7.61,7.74h40.52c4.23-.37,7.49-3.94,7.48-8.13,0-4.27-3.42-7.89-7.74-8.13h-40.26Z"/>
  <path class="cls-1" d="M216.6,65.62s.19-8.32,8.19-8.19c0,0,8,.52,8.06,8.19v44.97l25.42,25.55s5.1,6.26-.52,10.9c0,0-5.94,4.71-10.58,0l-26.32-26.65s-4.53-4.04-4.46-11.75l.2-43.02Z"/>
  <path class="cls-1" d="M224.05,3.25c-60.75,0-110,49.25-110,110s49.25,110,110,110,110-49.25,110-110S284.8,3.25,224.05,3.25ZM224.05,208.55c-52.65,0-95.33-42.68-95.33-95.33S171.4,17.88,224.05,17.88s95.33,42.68,95.33,95.33-42.68,95.33-95.33,95.33Z"/>
</svg>