<?xml version="1.0" encoding="UTF-8"?>
<svg id="_레이어_1" data-name="레이어 1" xmlns="http://www.w3.org/2000/svg" viewBox="0 0 134.49 171.38">
  <defs>
    <style>
      .cls-1 {
        fill: #155deb;
      }
    </style>
  </defs>
  <path class="cls-1" d="M67.25,0C30.11,0,0,30.11,0,67.25s30.11,67.25,67.25,67.25,67.25-30.11,67.25-67.25S104.38,0,67.25,0ZM67.16,126.21c-32.7,0-59.22-26.51-59.22-59.22S34.46,7.77,67.16,7.77s59.22,26.51,59.22,59.22-26.51,59.22-59.22,59.22Z"/>
  <path class="cls-1" d="M67.16,29.34c-16.01,0-28.99,12.98-28.99,28.99s12.98,28.99,28.99,28.99,28.99-12.98,28.99-28.99-12.98-28.99-28.99-28.99ZM67.12,80.02c-11.91,0-21.57-9.66-21.57-21.57s9.66-21.57,21.57-21.57,21.57,9.66,21.57,21.57-9.66,21.57-21.57,21.57Z"/>
  <path class="cls-1" d="M33.1,120.11c.58-18.2,15.51-32.79,33.85-32.79s33.39,14.7,33.86,33.01l1.39-.41,6.11-5.27c-3.46-19.68-20.63-34.64-41.3-34.64s-38.25,15.31-41.42,35.33l7.52,4.76Z"/>
</svg>