<?xml version="1.0" encoding="UTF-8"?>
<svg id="_레이어_2" data-name="레이어 2" xmlns="http://www.w3.org/2000/svg" viewBox="0 0 85.65 92.76">
  <defs>
    <style>
      .cls-1 {
        fill: #155deb;
      }

      .cls-2 {
        fill: none;
        stroke: #155deb;
        stroke-miterlimit: 10;
      }
    </style>
  </defs>
  <g id="DESIGNED_BY_FREEPIK" data-name="DESIGNED BY FREEPIK">
    <g>
      <g>
        <path class="cls-1" d="M69.53,9.29h-.81v4h.81c6.41,0,11.62,5.21,11.62,11.62v51.73c0,6.41-5.21,11.62-11.62,11.62H16.12c-6.41,0-11.62-5.21-11.62-11.62V24.91c0-6.41,5.21-11.62,11.62-11.62h1.27v-4h-1.27C7.51,9.29.5,16.3.5,24.91v51.73c0,8.61,7.01,15.62,15.62,15.62h53.41c8.61,0,15.62-7.01,15.62-15.62V24.91c0-8.61-7.01-15.62-15.62-15.62ZM62.99,9.29H21.88v4h41.1v-4Z"/>
        <path class="cls-2" d="M69.53,9.29h-.81v4h.81c6.41,0,11.62,5.21,11.62,11.62v51.73c0,6.41-5.21,11.62-11.62,11.62H16.12c-6.41,0-11.62-5.21-11.62-11.62V24.91c0-6.41,5.21-11.62,11.62-11.62h1.27v-4h-1.27C7.51,9.29.5,16.3.5,24.91v51.73c0,8.61,7.01,15.62,15.62,15.62h53.41c8.61,0,15.62-7.01,15.62-15.62V24.91c0-8.61-7.01-15.62-15.62-15.62ZM62.99,9.29H21.88v4h41.1v-4Z"/>
      </g>
      <g>
        <path class="cls-1" d="M62.99,9.29H21.88v4h41.1v-4ZM69.53,9.29h-.81v4h.81c6.41,0,11.62,4.52,11.62,10.08v8.2H4.5v-8.2c0-5.56,5.21-10.08,11.62-10.08h1.27v-4h-1.27C7.51,9.29.5,15.61.5,23.37v12.2h84.65v-12.2c0-7.76-7.01-14.08-15.62-14.08Z"/>
        <path class="cls-2" d="M62.99,9.29H21.88v4h41.1v-4ZM69.53,9.29h-.81v4h.81c6.41,0,11.62,4.52,11.62,10.08v8.2H4.5v-8.2c0-5.56,5.21-10.08,11.62-10.08h1.27v-4h-1.27C7.51,9.29.5,15.61.5,23.37v12.2h84.65v-12.2c0-7.76-7.01-14.08-15.62-14.08Z"/>
      </g>
      <g>
        <path class="cls-1" d="M19.66,23.42c-3.61,0-6.55-2.94-6.55-6.55V6.55c0-3.61,2.94-6.55,6.55-6.55s6.55,2.94,6.55,6.55v10.33c0,3.61-2.94,6.55-6.55,6.55ZM19.66,5c-.85,0-1.55.69-1.55,1.55v10.33c0,.85.69,1.55,1.55,1.55s1.55-.69,1.55-1.55V6.55c0-.85-.69-1.55-1.55-1.55Z"/>
        <path class="cls-1" d="M65.99,23.42c-3.61,0-6.55-2.94-6.55-6.55V6.55c0-3.61,2.94-6.55,6.55-6.55s6.55,2.94,6.55,6.55v10.33c0,3.61-2.94,6.55-6.55,6.55ZM65.99,5c-.85,0-1.55.69-1.55,1.55v10.33c0,.85.69,1.55,1.55,1.55s1.55-.69,1.55-1.55V6.55c0-.85-.69-1.55-1.55-1.55Z"/>
      </g>
      <path class="cls-1" d="M59.39,53.2c0-1.74-1.41-3.15-3.15-3.15-.75,0-1.43.26-1.97.7h0s-16.84,13.78-16.84,13.78l-5.49-7.27h0c-.57-.78-1.5-1.3-2.54-1.3-1.74,0-3.14,1.41-3.14,3.14,0,.73.25,1.4.67,1.94h0s7.88,10.44,7.88,10.44c0,0,1.56,2.07,4.33-.2l19.09-15.63c.72-.58,1.17-1.46,1.17-2.45Z"/>
    </g>
  </g>
</svg>