<svg width="30" height="39" viewBox="0 0 30 39" fill="none" xmlns="http://www.w3.org/2000/svg">
<path d="M8.32559 20.1673H21.6765C21.9823 20.1673 22.2373 20.0641 22.4416 19.8575C22.6473 19.6495 22.7502 19.3917 22.7502 19.084C22.7502 18.7763 22.6473 18.5185 22.4416 18.3105C22.2359 18.1025 21.9816 17.9992 21.6787 18.0007H8.32559C8.01986 18.0007 7.76484 18.1039 7.56054 18.3105C7.35481 18.5171 7.25195 18.7749 7.25195 19.084C7.25195 19.3931 7.35481 19.6509 7.56054 19.8575C7.76627 20.0641 8.02129 20.1673 8.32559 20.1673ZM8.32559 26.1668H21.6765C21.9823 26.1668 22.2373 26.0636 22.4416 25.857C22.6473 25.6504 22.7502 25.3926 22.7502 25.0835C22.7502 24.7744 22.6473 24.5166 22.4416 24.31C22.2359 24.1034 21.9816 24.0002 21.6787 24.0002H8.32559C8.01986 24.0002 7.76484 24.1034 7.56054 24.31C7.35481 24.518 7.25195 24.7758 7.25195 25.0835C7.25195 25.3912 7.35481 25.649 7.56054 25.857C7.76627 26.065 8.02129 26.1683 8.32559 26.1668ZM8.32559 32.1685H15.2475C15.5533 32.1685 15.8083 32.0645 16.0126 31.8565C16.2183 31.6499 16.3212 31.3921 16.3212 31.083C16.3212 30.7753 16.2183 30.5182 16.0126 30.3117C15.8083 30.1037 15.554 29.9997 15.2497 29.9997H8.32559C8.01986 29.9997 7.76484 30.1037 7.56054 30.3117C7.35481 30.5182 7.25195 30.7753 7.25195 31.083C7.25195 31.3921 7.35481 31.6499 7.56054 31.8565C7.76484 32.0631 8.01986 32.1685 8.32559 32.1685ZM3.46096 39C2.47518 39 1.65226 38.6663 0.992213 37.999C0.332166 37.3317 0.00142867 36.4989 0 35.5008V3.49917C0 2.5025 0.330737 1.6705 0.992213 1.00317C1.65369 0.335833 2.47732 0.00144444 3.4631 0H18.9206C19.3821 0 19.8307 0.0938891 20.2664 0.281667C20.7022 0.469445 21.0751 0.7215 21.3851 1.03783L28.9735 8.71C29.2835 9.02489 29.5321 9.40189 29.7193 9.841C29.9064 10.2801 30 10.7337 30 11.2017V35.4987C30 36.4953 29.6693 37.3281 29.0078 37.9968C28.3463 38.6656 27.5241 39 26.5412 39H3.46096ZM27.8591 10.8333H21.8844C21.1558 10.8333 20.5408 10.5798 20.0393 10.0728C19.5378 9.56583 19.2871 8.94472 19.2871 8.2095V2.16667H3.4631C3.13308 2.16667 2.8302 2.30533 2.55447 2.58267C2.27873 2.86 2.14158 3.1655 2.14301 3.49917V35.5008C2.14301 35.8331 2.28016 36.1386 2.55447 36.4173C2.82877 36.6961 3.13094 36.8348 3.46096 36.8333H26.5412C26.8698 36.8333 27.1719 36.6947 27.4477 36.4173C27.7234 36.14 27.8606 35.8338 27.8591 35.4987V10.8333Z" fill="#165DEB"/>
</svg>
