<?xml version="1.0" encoding="UTF-8"?>
<svg id="_레이어_1" data-name="레이어 1" xmlns="http://www.w3.org/2000/svg" viewBox="0 0 269.48 91.04">
  <defs>
    <style>
      .cls-1 {
        fill: #155deb;
      }
    </style>
  </defs>
  <g>
    <path d="M0,27.17h13.75c2.47,0,4.56.36,6.28,1.09,1.72.73,3.01,1.74,3.88,3.05s1.3,2.83,1.3,4.58c0,1.28-.27,2.42-.8,3.42-.53,1-1.27,1.82-2.2,2.47s-2.01,1.11-3.23,1.37v.33c1.32.06,2.56.44,3.72,1.12,1.16.69,2.09,1.64,2.79,2.87.7,1.23,1.05,2.65,1.05,4.28,0,1.81-.45,3.42-1.36,4.83-.91,1.41-2.26,2.51-4.05,3.32s-3.95,1.21-6.48,1.21H0V27.17ZM15.38,40.86c.8-.36,1.43-.87,1.89-1.52s.68-1.43.68-2.32c0-.84-.2-1.57-.6-2.19-.4-.62-.98-1.09-1.75-1.43-.77-.34-1.7-.5-2.78-.5h-5.66v8.51h5.51c1,0,1.91-.18,2.71-.54ZM16.55,54.79c.88-.35,1.53-.84,1.94-1.48.41-.63.62-1.39.62-2.26,0-.94-.23-1.78-.69-2.53-.46-.75-1.13-1.32-1.99-1.72s-1.88-.6-3.04-.6h-6.23v9.12h6.04c1.35,0,2.47-.18,3.35-.53Z"/>
    <path d="M58.84,27.17v22.05c0,2.44-.59,4.59-1.78,6.45-1.19,1.86-2.86,3.31-5.02,4.35-2.16,1.04-4.66,1.56-7.49,1.56s-5.35-.52-7.49-1.56-3.81-2.49-5-4.35c-1.19-1.86-1.78-4.01-1.78-6.45v-22.05h7.16v21.47c0,1.28.29,2.43.88,3.46.59,1.02,1.42,1.83,2.51,2.41,1.08.59,2.32.88,3.72.88s2.66-.29,3.75-.88c1.08-.59,1.91-1.39,2.49-2.41.58-1.02.87-2.18.87-3.46v-21.47h7.18Z"/>
    <path d="M81.67,34.55c-.49-.64-1.16-1.12-2.02-1.45-.86-.33-1.89-.49-3.08-.49s-2.17.16-3.02.49-1.5.79-1.94,1.37c-.45.59-.67,1.25-.67,2-.02,1.14.47,2.03,1.44,2.67s2.33,1.17,4.07,1.59l3.1.73c3.28.72,5.82,1.88,7.63,3.48,1.81,1.6,2.72,3.76,2.73,6.48,0,2.05-.53,3.84-1.6,5.37-1.07,1.53-2.6,2.71-4.61,3.54s-4.4,1.24-7.18,1.24-5.21-.42-7.27-1.27-3.66-2.09-4.79-3.74c-1.13-1.65-1.73-3.67-1.81-6.06h6.97c.1,1.11.44,2.05,1.03,2.81.59.77,1.38,1.34,2.39,1.73s2.14.59,3.41.59,2.33-.18,3.27-.54,1.66-.86,2.17-1.51.76-1.39.76-2.21c0-.75-.22-1.39-.67-1.91-.45-.52-1.09-.97-1.95-1.34s-1.94-.71-3.28-1.04l-3.79-.89c-3.02-.73-5.34-1.86-6.96-3.36-1.62-1.51-2.42-3.47-2.42-5.89,0-2.02.56-3.8,1.68-5.34,1.12-1.55,2.67-2.75,4.65-3.61s4.22-1.29,6.72-1.29,4.73.43,6.66,1.28,3.42,2.05,4.49,3.59,1.61,3.31,1.65,5.31h-6.9c-.1-.91-.39-1.68-.87-2.32Z"/>
    <path class="cls-1" d="M92.4,27.17h28.31v5.81h-10.6v28.12h-7.09v-28.12h-10.62v-5.81Z"/>
    <path class="cls-1" d="M152.37,53.48c-1.39,2.63-3.31,4.64-5.75,6.02-2.44,1.38-5.21,2.07-8.29,2.07s-5.85-.69-8.29-2.07-4.36-3.39-5.75-6.04-2.09-5.75-2.09-9.33.7-6.75,2.09-9.38,3.31-4.62,5.75-6,5.21-2.06,8.29-2.06,5.85.69,8.29,2.06c2.44,1.38,4.36,3.38,5.75,6,1.39,2.62,2.09,5.75,2.09,9.38s-.7,6.71-2.09,9.34ZM146.12,38.05c-.72-1.67-1.75-2.94-3.08-3.81-1.33-.87-2.9-1.3-4.71-1.3s-3.36.43-4.69,1.3c-1.33.87-2.36,2.14-3.09,3.81s-1.1,3.7-1.1,6.09.37,4.42,1.1,6.09,1.76,2.94,3.09,3.81c1.33.87,2.89,1.3,4.69,1.3s3.38-.43,4.71-1.3c1.33-.87,2.35-2.14,3.08-3.81.72-1.67,1.09-3.7,1.09-6.09s-.36-4.42-1.09-6.09Z"/>
    <path class="cls-1" d="M155.44,27.17h7.8l5.8,23.72h.31l6.32-23.72h6.78l6.35,23.79h.29l5.8-23.79h7.8l-9.86,33.94h-7.04l-6.59-22.41h-.26l-6.61,22.41h-7.02l-9.88-33.94Z"/>
    <path class="cls-1" d="M234.4,61.11h-6.21l-15.18-21.56h-.26v21.56h-7.16V27.17h6.3l15.06,21.54h.31v-21.54h7.14v33.94Z"/>
  </g>
  <rect class="cls-1" x="197.29" y="71.97" width="71.2" height="4.84"/>
  <rect class="cls-1" x="240.55" y="10.52" width="30.75" height="5.25" transform="translate(77.69 -170.98) rotate(42.99)"/>
  <rect class="cls-1" x="240.57" y="46.86" width="52.93" height="4.89" transform="translate(217.73 316.34) rotate(-90)"/>
  <path class="cls-1" d="M190.02,67.5c-6.5,0-11.77,5.27-11.77,11.77s5.27,11.77,11.77,11.77,11.77-5.27,11.77-11.77-5.27-11.77-11.77-11.77ZM190.02,86.02c-3.73,0-6.75-3.02-6.75-6.75s3.02-6.75,6.75-6.75,6.75,3.02,6.75,6.75-3.02,6.75-6.75,6.75Z"/>
  <path class="cls-1" d="M173.86,0c-1.35,0-2.44,1.08-2.44,2.42s1.09,2.42,2.44,2.42h70.46V0h-70.46Z"/>
  <circle class="cls-1" cx="268.49" cy="75.82" r=".99"/>
  <circle class="cls-1" cx="267.95" cy="22.85" r="1.53"/>
  <path class="cls-1" d="M244.52,0c-1.6,0-2.9,1.29-2.9,2.87,0,.62.2,1.19.54,1.66l1.27-.08,1.24,1.28c1.54-.07,2.77-1.32,2.77-2.86s-1.3-2.87-2.9-2.87Z"/>
</svg>